<mxfile host="app.diagrams.net" agent="Mozilla/5.0 (Windows NT 10.0; Win64; x64) AppleWebKit/537.36 (KHTML, like Gecko) Chrome/131.0.0.0 Safari/537.36" version="25.0.3">
  <diagram name="Страница — 1" id="sVkEy5oRozjvM7dXuIC5">
    <mxGraphModel dx="3268" dy="322" grid="0" gridSize="10" guides="1" tooltips="1" connect="1" arrows="1" fold="1" page="0" pageScale="1" pageWidth="827" pageHeight="1169" math="0" shadow="0">
      <root>
        <mxCell id="0" />
        <mxCell id="1" parent="0" />
        <mxCell id="dIL4AxY-LMtDmRbHM10j-687" value="4" style="ellipse;whiteSpace=wrap;html=1;aspect=fixed;rounded=1;" vertex="1" parent="1">
          <mxGeometry x="19" y="1455" width="30" height="30" as="geometry" />
        </mxCell>
        <mxCell id="dIL4AxY-LMtDmRbHM10j-688" value="=" style="ellipse;whiteSpace=wrap;html=1;aspect=fixed;rounded=1;" vertex="1" parent="1">
          <mxGeometry x="70" y="1516" width="30" height="30" as="geometry" />
        </mxCell>
        <mxCell id="dIL4AxY-LMtDmRbHM10j-689" value="E" style="ellipse;whiteSpace=wrap;html=1;aspect=fixed;rounded=1;" vertex="1" parent="1">
          <mxGeometry x="113" y="1516" width="30" height="30" as="geometry" />
        </mxCell>
        <mxCell id="dIL4AxY-LMtDmRbHM10j-690" value="i" style="ellipse;whiteSpace=wrap;html=1;aspect=fixed;rounded=1;" vertex="1" parent="1">
          <mxGeometry x="27" y="1516" width="30" height="30" as="geometry" />
        </mxCell>
        <mxCell id="dIL4AxY-LMtDmRbHM10j-691" value="l" style="ellipse;whiteSpace=wrap;html=1;aspect=fixed;rounded=1;" vertex="1" parent="1">
          <mxGeometry x="113" y="1574" width="30" height="30" as="geometry" />
        </mxCell>
        <mxCell id="dIL4AxY-LMtDmRbHM10j-692" value="" style="endArrow=none;html=1;rounded=1;entryX=0.5;entryY=1;entryDx=0;entryDy=0;exitX=0.5;exitY=0;exitDx=0;exitDy=0;" edge="1" parent="1" source="dIL4AxY-LMtDmRbHM10j-691" target="dIL4AxY-LMtDmRbHM10j-689">
          <mxGeometry width="50" height="50" relative="1" as="geometry">
            <mxPoint x="212" y="1464.5" as="sourcePoint" />
            <mxPoint x="262" y="1414.5" as="targetPoint" />
          </mxGeometry>
        </mxCell>
        <mxCell id="dIL4AxY-LMtDmRbHM10j-693" value=";" style="ellipse;whiteSpace=wrap;html=1;aspect=fixed;rounded=1;" vertex="1" parent="1">
          <mxGeometry x="155" y="1516" width="30" height="30" as="geometry" />
        </mxCell>
        <mxCell id="dIL4AxY-LMtDmRbHM10j-694" value="" style="endArrow=none;html=1;rounded=1;entryX=0.5;entryY=1;entryDx=0;entryDy=0;exitX=0.5;exitY=0;exitDx=0;exitDy=0;" edge="1" parent="1" source="dIL4AxY-LMtDmRbHM10j-699" target="dIL4AxY-LMtDmRbHM10j-687">
          <mxGeometry width="50" height="50" relative="1" as="geometry">
            <mxPoint x="-8" y="1516" as="sourcePoint" />
            <mxPoint x="11" y="1625.5" as="targetPoint" />
          </mxGeometry>
        </mxCell>
        <mxCell id="dIL4AxY-LMtDmRbHM10j-695" value="" style="endArrow=none;html=1;rounded=1;entryX=0.5;entryY=1;entryDx=0;entryDy=0;exitX=0.5;exitY=0;exitDx=0;exitDy=0;" edge="1" parent="1" source="dIL4AxY-LMtDmRbHM10j-690" target="dIL4AxY-LMtDmRbHM10j-687">
          <mxGeometry width="50" height="50" relative="1" as="geometry">
            <mxPoint x="23" y="1594.5" as="sourcePoint" />
            <mxPoint x="73" y="1544.5" as="targetPoint" />
          </mxGeometry>
        </mxCell>
        <mxCell id="dIL4AxY-LMtDmRbHM10j-696" value="" style="endArrow=none;html=1;rounded=1;entryX=0.5;entryY=1;entryDx=0;entryDy=0;exitX=0.5;exitY=0;exitDx=0;exitDy=0;" edge="1" parent="1" source="dIL4AxY-LMtDmRbHM10j-688" target="dIL4AxY-LMtDmRbHM10j-687">
          <mxGeometry width="50" height="50" relative="1" as="geometry">
            <mxPoint x="93" y="1586.5" as="sourcePoint" />
            <mxPoint x="84" y="1486.5" as="targetPoint" />
          </mxGeometry>
        </mxCell>
        <mxCell id="dIL4AxY-LMtDmRbHM10j-697" value="" style="endArrow=none;html=1;rounded=1;entryX=0.5;entryY=1;entryDx=0;entryDy=0;exitX=0.5;exitY=0;exitDx=0;exitDy=0;" edge="1" parent="1" source="dIL4AxY-LMtDmRbHM10j-689" target="dIL4AxY-LMtDmRbHM10j-687">
          <mxGeometry width="50" height="50" relative="1" as="geometry">
            <mxPoint x="58" y="1651.5" as="sourcePoint" />
            <mxPoint x="108" y="1601.5" as="targetPoint" />
          </mxGeometry>
        </mxCell>
        <mxCell id="dIL4AxY-LMtDmRbHM10j-698" value="" style="endArrow=none;html=1;rounded=1;entryX=0.5;entryY=1;entryDx=0;entryDy=0;exitX=0.5;exitY=0;exitDx=0;exitDy=0;" edge="1" parent="1" source="dIL4AxY-LMtDmRbHM10j-693" target="dIL4AxY-LMtDmRbHM10j-687">
          <mxGeometry width="50" height="50" relative="1" as="geometry">
            <mxPoint x="139" y="1497.5" as="sourcePoint" />
            <mxPoint x="189" y="1447.5" as="targetPoint" />
          </mxGeometry>
        </mxCell>
        <mxCell id="dIL4AxY-LMtDmRbHM10j-699" value="t" style="ellipse;whiteSpace=wrap;html=1;aspect=fixed;rounded=1;" vertex="1" parent="1">
          <mxGeometry x="-15" y="1515" width="30" height="30" as="geometry" />
        </mxCell>
        <mxCell id="dIL4AxY-LMtDmRbHM10j-700" value="N" style="ellipse;whiteSpace=wrap;html=1;aspect=fixed;rounded=1;" vertex="1" parent="1">
          <mxGeometry x="201" y="1514" width="30" height="30" as="geometry" />
        </mxCell>
        <mxCell id="dIL4AxY-LMtDmRbHM10j-701" value=";" style="ellipse;whiteSpace=wrap;html=1;aspect=fixed;rounded=1;" vertex="1" parent="1">
          <mxGeometry x="260" y="1576" width="30" height="30" as="geometry" />
        </mxCell>
        <mxCell id="dIL4AxY-LMtDmRbHM10j-702" value="z" style="ellipse;whiteSpace=wrap;html=1;aspect=fixed;rounded=1;" vertex="1" parent="1">
          <mxGeometry x="176" y="1576" width="30" height="30" as="geometry" />
        </mxCell>
        <mxCell id="dIL4AxY-LMtDmRbHM10j-703" value="i" style="ellipse;whiteSpace=wrap;html=1;aspect=fixed;rounded=1;" vertex="1" parent="1">
          <mxGeometry x="219" y="1576" width="30" height="30" as="geometry" />
        </mxCell>
        <mxCell id="dIL4AxY-LMtDmRbHM10j-704" value="" style="endArrow=none;html=1;rounded=1;entryX=0.5;entryY=1;entryDx=0;entryDy=0;exitX=0.5;exitY=0;exitDx=0;exitDy=0;" edge="1" parent="1" source="dIL4AxY-LMtDmRbHM10j-702" target="dIL4AxY-LMtDmRbHM10j-700">
          <mxGeometry width="50" height="50" relative="1" as="geometry">
            <mxPoint x="156" y="1619" as="sourcePoint" />
            <mxPoint x="206" y="1569" as="targetPoint" />
          </mxGeometry>
        </mxCell>
        <mxCell id="dIL4AxY-LMtDmRbHM10j-705" value="" style="endArrow=none;html=1;rounded=1;entryX=0.5;entryY=1;entryDx=0;entryDy=0;exitX=0.5;exitY=0;exitDx=0;exitDy=0;" edge="1" parent="1" source="dIL4AxY-LMtDmRbHM10j-703" target="dIL4AxY-LMtDmRbHM10j-700">
          <mxGeometry width="50" height="50" relative="1" as="geometry">
            <mxPoint x="216" y="1672" as="sourcePoint" />
            <mxPoint x="266" y="1622" as="targetPoint" />
          </mxGeometry>
        </mxCell>
        <mxCell id="dIL4AxY-LMtDmRbHM10j-706" value="" style="endArrow=none;html=1;rounded=1;entryX=0.5;entryY=1;entryDx=0;entryDy=0;exitX=0.5;exitY=0;exitDx=0;exitDy=0;" edge="1" parent="1" source="dIL4AxY-LMtDmRbHM10j-701" target="dIL4AxY-LMtDmRbHM10j-700">
          <mxGeometry width="50" height="50" relative="1" as="geometry">
            <mxPoint x="229" y="1670" as="sourcePoint" />
            <mxPoint x="279" y="1620" as="targetPoint" />
          </mxGeometry>
        </mxCell>
        <mxCell id="dIL4AxY-LMtDmRbHM10j-707" value="" style="endArrow=none;html=1;rounded=1;entryX=0.5;entryY=1;entryDx=0;entryDy=0;exitX=0.5;exitY=0;exitDx=0;exitDy=0;" edge="1" parent="1" source="dIL4AxY-LMtDmRbHM10j-700" target="dIL4AxY-LMtDmRbHM10j-687">
          <mxGeometry width="50" height="50" relative="1" as="geometry">
            <mxPoint x="31" y="1682" as="sourcePoint" />
            <mxPoint x="81" y="1632" as="targetPoint" />
          </mxGeometry>
        </mxCell>
        <mxCell id="dIL4AxY-LMtDmRbHM10j-708" value="N" style="ellipse;whiteSpace=wrap;html=1;aspect=fixed;rounded=1;" vertex="1" parent="1">
          <mxGeometry x="311.37" y="1574" width="30" height="30" as="geometry" />
        </mxCell>
        <mxCell id="dIL4AxY-LMtDmRbHM10j-709" value="=" style="ellipse;whiteSpace=wrap;html=1;aspect=fixed;rounded=1;" vertex="1" parent="1">
          <mxGeometry x="362.37" y="1635" width="30" height="30" as="geometry" />
        </mxCell>
        <mxCell id="dIL4AxY-LMtDmRbHM10j-710" value="E" style="ellipse;whiteSpace=wrap;html=1;aspect=fixed;rounded=1;" vertex="1" parent="1">
          <mxGeometry x="405.37" y="1635" width="30" height="30" as="geometry" />
        </mxCell>
        <mxCell id="dIL4AxY-LMtDmRbHM10j-711" value="i" style="ellipse;whiteSpace=wrap;html=1;aspect=fixed;rounded=1;" vertex="1" parent="1">
          <mxGeometry x="319.37" y="1635" width="30" height="30" as="geometry" />
        </mxCell>
        <mxCell id="dIL4AxY-LMtDmRbHM10j-712" value="l" style="ellipse;whiteSpace=wrap;html=1;aspect=fixed;rounded=1;" vertex="1" parent="1">
          <mxGeometry x="405.37" y="1693" width="30" height="30" as="geometry" />
        </mxCell>
        <mxCell id="dIL4AxY-LMtDmRbHM10j-713" value="" style="endArrow=none;html=1;rounded=1;entryX=0.5;entryY=1;entryDx=0;entryDy=0;exitX=0.5;exitY=0;exitDx=0;exitDy=0;" edge="1" parent="1" source="dIL4AxY-LMtDmRbHM10j-712" target="dIL4AxY-LMtDmRbHM10j-710">
          <mxGeometry width="50" height="50" relative="1" as="geometry">
            <mxPoint x="504.37" y="1583.5" as="sourcePoint" />
            <mxPoint x="554.37" y="1533.5" as="targetPoint" />
          </mxGeometry>
        </mxCell>
        <mxCell id="dIL4AxY-LMtDmRbHM10j-714" value=";" style="ellipse;whiteSpace=wrap;html=1;aspect=fixed;rounded=1;" vertex="1" parent="1">
          <mxGeometry x="447.37" y="1635" width="30" height="30" as="geometry" />
        </mxCell>
        <mxCell id="dIL4AxY-LMtDmRbHM10j-715" value="" style="endArrow=none;html=1;rounded=1;entryX=0.5;entryY=1;entryDx=0;entryDy=0;exitX=0.5;exitY=0;exitDx=0;exitDy=0;" edge="1" parent="1" source="dIL4AxY-LMtDmRbHM10j-720" target="dIL4AxY-LMtDmRbHM10j-708">
          <mxGeometry width="50" height="50" relative="1" as="geometry">
            <mxPoint x="284.37" y="1635" as="sourcePoint" />
            <mxPoint x="303.37" y="1744.5" as="targetPoint" />
          </mxGeometry>
        </mxCell>
        <mxCell id="dIL4AxY-LMtDmRbHM10j-716" value="" style="endArrow=none;html=1;rounded=1;entryX=0.5;entryY=1;entryDx=0;entryDy=0;exitX=0.5;exitY=0;exitDx=0;exitDy=0;" edge="1" parent="1" source="dIL4AxY-LMtDmRbHM10j-711" target="dIL4AxY-LMtDmRbHM10j-708">
          <mxGeometry width="50" height="50" relative="1" as="geometry">
            <mxPoint x="315.37" y="1713.5" as="sourcePoint" />
            <mxPoint x="365.37" y="1663.5" as="targetPoint" />
          </mxGeometry>
        </mxCell>
        <mxCell id="dIL4AxY-LMtDmRbHM10j-717" value="" style="endArrow=none;html=1;rounded=1;entryX=0.5;entryY=1;entryDx=0;entryDy=0;exitX=0.5;exitY=0;exitDx=0;exitDy=0;" edge="1" parent="1" source="dIL4AxY-LMtDmRbHM10j-709" target="dIL4AxY-LMtDmRbHM10j-708">
          <mxGeometry width="50" height="50" relative="1" as="geometry">
            <mxPoint x="385.37" y="1705.5" as="sourcePoint" />
            <mxPoint x="376.37" y="1605.5" as="targetPoint" />
          </mxGeometry>
        </mxCell>
        <mxCell id="dIL4AxY-LMtDmRbHM10j-718" value="" style="endArrow=none;html=1;rounded=1;entryX=0.5;entryY=1;entryDx=0;entryDy=0;exitX=0.5;exitY=0;exitDx=0;exitDy=0;" edge="1" parent="1" source="dIL4AxY-LMtDmRbHM10j-710" target="dIL4AxY-LMtDmRbHM10j-708">
          <mxGeometry width="50" height="50" relative="1" as="geometry">
            <mxPoint x="350.37" y="1770.5" as="sourcePoint" />
            <mxPoint x="400.37" y="1720.5" as="targetPoint" />
          </mxGeometry>
        </mxCell>
        <mxCell id="dIL4AxY-LMtDmRbHM10j-719" value="" style="endArrow=none;html=1;rounded=1;entryX=0.5;entryY=1;entryDx=0;entryDy=0;exitX=0.5;exitY=0;exitDx=0;exitDy=0;" edge="1" parent="1" source="dIL4AxY-LMtDmRbHM10j-714" target="dIL4AxY-LMtDmRbHM10j-708">
          <mxGeometry width="50" height="50" relative="1" as="geometry">
            <mxPoint x="431.37" y="1616.5" as="sourcePoint" />
            <mxPoint x="481.37" y="1566.5" as="targetPoint" />
          </mxGeometry>
        </mxCell>
        <mxCell id="dIL4AxY-LMtDmRbHM10j-720" value="t" style="ellipse;whiteSpace=wrap;html=1;aspect=fixed;rounded=1;" vertex="1" parent="1">
          <mxGeometry x="277.37" y="1634" width="30" height="30" as="geometry" />
        </mxCell>
        <mxCell id="dIL4AxY-LMtDmRbHM10j-721" value="N" style="ellipse;whiteSpace=wrap;html=1;aspect=fixed;rounded=1;" vertex="1" parent="1">
          <mxGeometry x="493.37" y="1633" width="30" height="30" as="geometry" />
        </mxCell>
        <mxCell id="dIL4AxY-LMtDmRbHM10j-722" value=";" style="ellipse;whiteSpace=wrap;html=1;aspect=fixed;rounded=1;" vertex="1" parent="1">
          <mxGeometry x="552.37" y="1695" width="30" height="30" as="geometry" />
        </mxCell>
        <mxCell id="dIL4AxY-LMtDmRbHM10j-723" value="z" style="ellipse;whiteSpace=wrap;html=1;aspect=fixed;rounded=1;" vertex="1" parent="1">
          <mxGeometry x="468.37" y="1695" width="30" height="30" as="geometry" />
        </mxCell>
        <mxCell id="dIL4AxY-LMtDmRbHM10j-724" value="i" style="ellipse;whiteSpace=wrap;html=1;aspect=fixed;rounded=1;" vertex="1" parent="1">
          <mxGeometry x="511.37" y="1695" width="30" height="30" as="geometry" />
        </mxCell>
        <mxCell id="dIL4AxY-LMtDmRbHM10j-725" value="" style="endArrow=none;html=1;rounded=1;entryX=0.5;entryY=1;entryDx=0;entryDy=0;exitX=0.5;exitY=0;exitDx=0;exitDy=0;" edge="1" parent="1" source="dIL4AxY-LMtDmRbHM10j-723" target="dIL4AxY-LMtDmRbHM10j-721">
          <mxGeometry width="50" height="50" relative="1" as="geometry">
            <mxPoint x="448.37" y="1738" as="sourcePoint" />
            <mxPoint x="498.37" y="1688" as="targetPoint" />
          </mxGeometry>
        </mxCell>
        <mxCell id="dIL4AxY-LMtDmRbHM10j-726" value="" style="endArrow=none;html=1;rounded=1;entryX=0.5;entryY=1;entryDx=0;entryDy=0;exitX=0.5;exitY=0;exitDx=0;exitDy=0;" edge="1" parent="1" source="dIL4AxY-LMtDmRbHM10j-724" target="dIL4AxY-LMtDmRbHM10j-721">
          <mxGeometry width="50" height="50" relative="1" as="geometry">
            <mxPoint x="508.37" y="1791" as="sourcePoint" />
            <mxPoint x="558.37" y="1741" as="targetPoint" />
          </mxGeometry>
        </mxCell>
        <mxCell id="dIL4AxY-LMtDmRbHM10j-727" value="" style="endArrow=none;html=1;rounded=1;entryX=0.5;entryY=1;entryDx=0;entryDy=0;exitX=0.5;exitY=0;exitDx=0;exitDy=0;" edge="1" parent="1" source="dIL4AxY-LMtDmRbHM10j-722" target="dIL4AxY-LMtDmRbHM10j-721">
          <mxGeometry width="50" height="50" relative="1" as="geometry">
            <mxPoint x="521.37" y="1789" as="sourcePoint" />
            <mxPoint x="571.37" y="1739" as="targetPoint" />
          </mxGeometry>
        </mxCell>
        <mxCell id="dIL4AxY-LMtDmRbHM10j-728" value="" style="endArrow=none;html=1;rounded=1;entryX=0.5;entryY=1;entryDx=0;entryDy=0;exitX=0.5;exitY=0;exitDx=0;exitDy=0;" edge="1" parent="1" source="dIL4AxY-LMtDmRbHM10j-721" target="dIL4AxY-LMtDmRbHM10j-708">
          <mxGeometry width="50" height="50" relative="1" as="geometry">
            <mxPoint x="323.37" y="1801" as="sourcePoint" />
            <mxPoint x="373.37" y="1751" as="targetPoint" />
          </mxGeometry>
        </mxCell>
        <mxCell id="dIL4AxY-LMtDmRbHM10j-729" value="" style="endArrow=none;html=1;rounded=1;entryX=0.5;entryY=1;entryDx=0;entryDy=0;exitX=0.5;exitY=0;exitDx=0;exitDy=0;" edge="1" parent="1" source="dIL4AxY-LMtDmRbHM10j-708" target="dIL4AxY-LMtDmRbHM10j-700">
          <mxGeometry width="50" height="50" relative="1" as="geometry">
            <mxPoint x="186" y="1728" as="sourcePoint" />
            <mxPoint x="236" y="1678" as="targetPoint" />
          </mxGeometry>
        </mxCell>
        <mxCell id="dIL4AxY-LMtDmRbHM10j-730" value="N" style="ellipse;whiteSpace=wrap;html=1;aspect=fixed;rounded=1;" vertex="1" parent="1">
          <mxGeometry x="607.62" y="1693" width="30" height="30" as="geometry" />
        </mxCell>
        <mxCell id="dIL4AxY-LMtDmRbHM10j-731" value="=" style="ellipse;whiteSpace=wrap;html=1;aspect=fixed;rounded=1;" vertex="1" parent="1">
          <mxGeometry x="647.62" y="1754" width="30" height="30" as="geometry" />
        </mxCell>
        <mxCell id="dIL4AxY-LMtDmRbHM10j-732" value="E" style="ellipse;whiteSpace=wrap;html=1;aspect=fixed;rounded=1;" vertex="1" parent="1">
          <mxGeometry x="690.62" y="1754" width="30" height="30" as="geometry" />
        </mxCell>
        <mxCell id="dIL4AxY-LMtDmRbHM10j-733" value=";" style="ellipse;whiteSpace=wrap;html=1;aspect=fixed;rounded=1;" vertex="1" parent="1">
          <mxGeometry x="738.62" y="1754" width="30" height="30" as="geometry" />
        </mxCell>
        <mxCell id="dIL4AxY-LMtDmRbHM10j-734" value="i" style="ellipse;whiteSpace=wrap;html=1;aspect=fixed;rounded=1;" vertex="1" parent="1">
          <mxGeometry x="609.62" y="1754" width="30" height="30" as="geometry" />
        </mxCell>
        <mxCell id="dIL4AxY-LMtDmRbHM10j-735" value="t" style="ellipse;whiteSpace=wrap;html=1;aspect=fixed;rounded=1;" vertex="1" parent="1">
          <mxGeometry x="565.62" y="1755" width="30" height="30" as="geometry" />
        </mxCell>
        <mxCell id="dIL4AxY-LMtDmRbHM10j-736" value="M" style="ellipse;whiteSpace=wrap;html=1;aspect=fixed;rounded=1;" vertex="1" parent="1">
          <mxGeometry x="681.62" y="1807" width="30" height="30" as="geometry" />
        </mxCell>
        <mxCell id="dIL4AxY-LMtDmRbHM10j-737" value="i" style="ellipse;whiteSpace=wrap;html=1;aspect=fixed;rounded=1;" vertex="1" parent="1">
          <mxGeometry x="639.62" y="1804" width="30" height="30" as="geometry" />
        </mxCell>
        <mxCell id="dIL4AxY-LMtDmRbHM10j-738" value="E" style="ellipse;whiteSpace=wrap;html=1;aspect=fixed;rounded=1;" vertex="1" parent="1">
          <mxGeometry x="681.62" y="1859" width="30" height="30" as="geometry" />
        </mxCell>
        <mxCell id="dIL4AxY-LMtDmRbHM10j-739" value="v" style="ellipse;whiteSpace=wrap;html=1;aspect=fixed;rounded=1;" vertex="1" parent="1">
          <mxGeometry x="639.62" y="1854" width="30" height="30" as="geometry" />
        </mxCell>
        <mxCell id="dIL4AxY-LMtDmRbHM10j-740" value="i" style="ellipse;whiteSpace=wrap;html=1;aspect=fixed;rounded=1;" vertex="1" parent="1">
          <mxGeometry x="681.62" y="1911" width="30" height="30" as="geometry" />
        </mxCell>
        <mxCell id="dIL4AxY-LMtDmRbHM10j-741" value="" style="endArrow=none;html=1;rounded=1;entryX=0.5;entryY=1;entryDx=0;entryDy=0;exitX=0.5;exitY=0;exitDx=0;exitDy=0;" edge="1" parent="1" source="dIL4AxY-LMtDmRbHM10j-735" target="dIL4AxY-LMtDmRbHM10j-730">
          <mxGeometry width="50" height="50" relative="1" as="geometry">
            <mxPoint x="581.62" y="1754" as="sourcePoint" />
            <mxPoint x="588.2399999999999" y="1800" as="targetPoint" />
          </mxGeometry>
        </mxCell>
        <mxCell id="dIL4AxY-LMtDmRbHM10j-742" value="" style="endArrow=none;html=1;rounded=1;entryX=0.5;entryY=1;entryDx=0;entryDy=0;exitX=0.5;exitY=0;exitDx=0;exitDy=0;" edge="1" parent="1" source="dIL4AxY-LMtDmRbHM10j-734" target="dIL4AxY-LMtDmRbHM10j-730">
          <mxGeometry width="50" height="50" relative="1" as="geometry">
            <mxPoint x="516.62" y="1856" as="sourcePoint" />
            <mxPoint x="566.62" y="1806" as="targetPoint" />
          </mxGeometry>
        </mxCell>
        <mxCell id="dIL4AxY-LMtDmRbHM10j-743" value="" style="endArrow=none;html=1;rounded=1;entryX=0.5;entryY=1;entryDx=0;entryDy=0;exitX=0.5;exitY=0;exitDx=0;exitDy=0;" edge="1" parent="1" source="dIL4AxY-LMtDmRbHM10j-731" target="dIL4AxY-LMtDmRbHM10j-730">
          <mxGeometry width="50" height="50" relative="1" as="geometry">
            <mxPoint x="506.62" y="1868" as="sourcePoint" />
            <mxPoint x="556.62" y="1818" as="targetPoint" />
          </mxGeometry>
        </mxCell>
        <mxCell id="dIL4AxY-LMtDmRbHM10j-744" value="" style="endArrow=none;html=1;rounded=1;entryX=0.5;entryY=1;entryDx=0;entryDy=0;exitX=0.5;exitY=0;exitDx=0;exitDy=0;" edge="1" parent="1" source="dIL4AxY-LMtDmRbHM10j-732" target="dIL4AxY-LMtDmRbHM10j-730">
          <mxGeometry width="50" height="50" relative="1" as="geometry">
            <mxPoint x="517.62" y="1856" as="sourcePoint" />
            <mxPoint x="567.62" y="1806" as="targetPoint" />
          </mxGeometry>
        </mxCell>
        <mxCell id="dIL4AxY-LMtDmRbHM10j-745" value="" style="endArrow=none;html=1;rounded=1;entryX=0.5;entryY=1;entryDx=0;entryDy=0;exitX=0.5;exitY=0;exitDx=0;exitDy=0;" edge="1" parent="1" source="dIL4AxY-LMtDmRbHM10j-733" target="dIL4AxY-LMtDmRbHM10j-730">
          <mxGeometry width="50" height="50" relative="1" as="geometry">
            <mxPoint x="505.62" y="1844" as="sourcePoint" />
            <mxPoint x="555.62" y="1794" as="targetPoint" />
          </mxGeometry>
        </mxCell>
        <mxCell id="dIL4AxY-LMtDmRbHM10j-746" value="" style="endArrow=none;html=1;rounded=1;entryX=0.5;entryY=1;entryDx=0;entryDy=0;exitX=0.5;exitY=0;exitDx=0;exitDy=0;" edge="1" parent="1" source="dIL4AxY-LMtDmRbHM10j-737" target="dIL4AxY-LMtDmRbHM10j-732">
          <mxGeometry width="50" height="50" relative="1" as="geometry">
            <mxPoint x="476.62" y="1861" as="sourcePoint" />
            <mxPoint x="526.62" y="1811" as="targetPoint" />
          </mxGeometry>
        </mxCell>
        <mxCell id="dIL4AxY-LMtDmRbHM10j-747" value="" style="endArrow=none;html=1;rounded=1;entryX=0.5;entryY=1;entryDx=0;entryDy=0;exitX=0.5;exitY=0;exitDx=0;exitDy=0;" edge="1" parent="1" source="dIL4AxY-LMtDmRbHM10j-736" target="dIL4AxY-LMtDmRbHM10j-732">
          <mxGeometry width="50" height="50" relative="1" as="geometry">
            <mxPoint x="470.62" y="1891" as="sourcePoint" />
            <mxPoint x="520.62" y="1841" as="targetPoint" />
          </mxGeometry>
        </mxCell>
        <mxCell id="dIL4AxY-LMtDmRbHM10j-748" value="" style="endArrow=none;html=1;rounded=1;entryX=0.5;entryY=1;entryDx=0;entryDy=0;exitX=0.5;exitY=0;exitDx=0;exitDy=0;" edge="1" parent="1" source="dIL4AxY-LMtDmRbHM10j-739" target="dIL4AxY-LMtDmRbHM10j-736">
          <mxGeometry width="50" height="50" relative="1" as="geometry">
            <mxPoint x="555.62" y="1939" as="sourcePoint" />
            <mxPoint x="605.62" y="1889" as="targetPoint" />
          </mxGeometry>
        </mxCell>
        <mxCell id="dIL4AxY-LMtDmRbHM10j-749" value="" style="endArrow=none;html=1;rounded=1;entryX=0.5;entryY=1;entryDx=0;entryDy=0;exitX=0.5;exitY=0;exitDx=0;exitDy=0;" edge="1" parent="1" source="dIL4AxY-LMtDmRbHM10j-738" target="dIL4AxY-LMtDmRbHM10j-736">
          <mxGeometry width="50" height="50" relative="1" as="geometry">
            <mxPoint x="529.62" y="1950" as="sourcePoint" />
            <mxPoint x="579.62" y="1900" as="targetPoint" />
          </mxGeometry>
        </mxCell>
        <mxCell id="dIL4AxY-LMtDmRbHM10j-750" value="" style="endArrow=none;html=1;rounded=1;entryX=0.5;entryY=1;entryDx=0;entryDy=0;exitX=0.5;exitY=0;exitDx=0;exitDy=0;" edge="1" parent="1" source="dIL4AxY-LMtDmRbHM10j-740" target="dIL4AxY-LMtDmRbHM10j-738">
          <mxGeometry width="50" height="50" relative="1" as="geometry">
            <mxPoint x="572.62" y="1981" as="sourcePoint" />
            <mxPoint x="622.62" y="1931" as="targetPoint" />
          </mxGeometry>
        </mxCell>
        <mxCell id="dIL4AxY-LMtDmRbHM10j-751" value="" style="endArrow=none;html=1;rounded=1;entryX=0.5;entryY=1;entryDx=0;entryDy=0;exitX=0.5;exitY=0;exitDx=0;exitDy=0;" edge="1" parent="1" source="dIL4AxY-LMtDmRbHM10j-730" target="dIL4AxY-LMtDmRbHM10j-721">
          <mxGeometry width="50" height="50" relative="1" as="geometry">
            <mxPoint x="449" y="1843" as="sourcePoint" />
            <mxPoint x="499" y="1793" as="targetPoint" />
          </mxGeometry>
        </mxCell>
        <mxCell id="dIL4AxY-LMtDmRbHM10j-752" value="N" style="ellipse;whiteSpace=wrap;html=1;aspect=fixed;rounded=1;" vertex="1" parent="1">
          <mxGeometry x="798" y="1751" width="30" height="30" as="geometry" />
        </mxCell>
        <mxCell id="dIL4AxY-LMtDmRbHM10j-753" value=";" style="ellipse;whiteSpace=wrap;html=1;aspect=fixed;rounded=1;" vertex="1" parent="1">
          <mxGeometry x="857" y="1813" width="30" height="30" as="geometry" />
        </mxCell>
        <mxCell id="dIL4AxY-LMtDmRbHM10j-754" value="z" style="ellipse;whiteSpace=wrap;html=1;aspect=fixed;rounded=1;" vertex="1" parent="1">
          <mxGeometry x="773" y="1813" width="30" height="30" as="geometry" />
        </mxCell>
        <mxCell id="dIL4AxY-LMtDmRbHM10j-755" value="i" style="ellipse;whiteSpace=wrap;html=1;aspect=fixed;rounded=1;" vertex="1" parent="1">
          <mxGeometry x="816" y="1813" width="30" height="30" as="geometry" />
        </mxCell>
        <mxCell id="dIL4AxY-LMtDmRbHM10j-756" value="" style="endArrow=none;html=1;rounded=1;entryX=0.5;entryY=1;entryDx=0;entryDy=0;exitX=0.5;exitY=0;exitDx=0;exitDy=0;" edge="1" parent="1" source="dIL4AxY-LMtDmRbHM10j-754" target="dIL4AxY-LMtDmRbHM10j-752">
          <mxGeometry width="50" height="50" relative="1" as="geometry">
            <mxPoint x="753" y="1856" as="sourcePoint" />
            <mxPoint x="803" y="1806" as="targetPoint" />
          </mxGeometry>
        </mxCell>
        <mxCell id="dIL4AxY-LMtDmRbHM10j-757" value="" style="endArrow=none;html=1;rounded=1;entryX=0.5;entryY=1;entryDx=0;entryDy=0;exitX=0.5;exitY=0;exitDx=0;exitDy=0;" edge="1" parent="1" source="dIL4AxY-LMtDmRbHM10j-755" target="dIL4AxY-LMtDmRbHM10j-752">
          <mxGeometry width="50" height="50" relative="1" as="geometry">
            <mxPoint x="813" y="1909" as="sourcePoint" />
            <mxPoint x="863" y="1859" as="targetPoint" />
          </mxGeometry>
        </mxCell>
        <mxCell id="dIL4AxY-LMtDmRbHM10j-758" value="" style="endArrow=none;html=1;rounded=1;entryX=0.5;entryY=1;entryDx=0;entryDy=0;exitX=0.5;exitY=0;exitDx=0;exitDy=0;" edge="1" parent="1" source="dIL4AxY-LMtDmRbHM10j-753" target="dIL4AxY-LMtDmRbHM10j-752">
          <mxGeometry width="50" height="50" relative="1" as="geometry">
            <mxPoint x="826" y="1907" as="sourcePoint" />
            <mxPoint x="876" y="1857" as="targetPoint" />
          </mxGeometry>
        </mxCell>
        <mxCell id="dIL4AxY-LMtDmRbHM10j-759" value="" style="endArrow=none;html=1;rounded=1;entryX=0.5;entryY=0;entryDx=0;entryDy=0;exitX=0.5;exitY=1;exitDx=0;exitDy=0;" edge="1" parent="1" source="dIL4AxY-LMtDmRbHM10j-730" target="dIL4AxY-LMtDmRbHM10j-752">
          <mxGeometry width="50" height="50" relative="1" as="geometry">
            <mxPoint x="684" y="1726" as="sourcePoint" />
            <mxPoint x="734" y="1676" as="targetPoint" />
          </mxGeometry>
        </mxCell>
        <mxCell id="dIL4AxY-LMtDmRbHM10j-760" value="N" style="ellipse;whiteSpace=wrap;html=1;aspect=fixed;rounded=1;" vertex="1" parent="1">
          <mxGeometry x="917" y="1813" width="30" height="30" as="geometry" />
        </mxCell>
        <mxCell id="dIL4AxY-LMtDmRbHM10j-761" value="t" style="ellipse;whiteSpace=wrap;html=1;aspect=fixed;rounded=1;" vertex="1" parent="1">
          <mxGeometry x="872" y="1887.5" width="30" height="30" as="geometry" />
        </mxCell>
        <mxCell id="dIL4AxY-LMtDmRbHM10j-762" value="i" style="ellipse;whiteSpace=wrap;html=1;aspect=fixed;rounded=1;" vertex="1" parent="1">
          <mxGeometry x="919" y="1887.5" width="30" height="30" as="geometry" />
        </mxCell>
        <mxCell id="dIL4AxY-LMtDmRbHM10j-763" value="=" style="ellipse;whiteSpace=wrap;html=1;aspect=fixed;rounded=1;" vertex="1" parent="1">
          <mxGeometry x="971" y="1887.5" width="30" height="30" as="geometry" />
        </mxCell>
        <mxCell id="dIL4AxY-LMtDmRbHM10j-764" value="E" style="ellipse;whiteSpace=wrap;html=1;aspect=fixed;rounded=1;" vertex="1" parent="1">
          <mxGeometry x="1022" y="1887.5" width="30" height="30" as="geometry" />
        </mxCell>
        <mxCell id="dIL4AxY-LMtDmRbHM10j-765" value=";" style="ellipse;whiteSpace=wrap;html=1;aspect=fixed;rounded=1;" vertex="1" parent="1">
          <mxGeometry x="1065" y="1887.5" width="30" height="30" as="geometry" />
        </mxCell>
        <mxCell id="dIL4AxY-LMtDmRbHM10j-766" value="" style="endArrow=none;html=1;rounded=1;exitX=0.5;exitY=0;exitDx=0;exitDy=0;entryX=0.5;entryY=1;entryDx=0;entryDy=0;" edge="1" parent="1" source="dIL4AxY-LMtDmRbHM10j-761" target="dIL4AxY-LMtDmRbHM10j-760">
          <mxGeometry width="50" height="50" relative="1" as="geometry">
            <mxPoint x="932" y="1855.5" as="sourcePoint" />
            <mxPoint x="982" y="1805.5" as="targetPoint" />
          </mxGeometry>
        </mxCell>
        <mxCell id="dIL4AxY-LMtDmRbHM10j-767" value="" style="endArrow=none;html=1;rounded=1;exitX=0.5;exitY=0;exitDx=0;exitDy=0;entryX=0.5;entryY=1;entryDx=0;entryDy=0;" edge="1" parent="1" source="dIL4AxY-LMtDmRbHM10j-762" target="dIL4AxY-LMtDmRbHM10j-760">
          <mxGeometry width="50" height="50" relative="1" as="geometry">
            <mxPoint x="932" y="1855.5" as="sourcePoint" />
            <mxPoint x="982" y="1805.5" as="targetPoint" />
          </mxGeometry>
        </mxCell>
        <mxCell id="dIL4AxY-LMtDmRbHM10j-768" value="" style="endArrow=none;html=1;rounded=1;entryX=0.5;entryY=1;entryDx=0;entryDy=0;exitX=0.5;exitY=0;exitDx=0;exitDy=0;" edge="1" parent="1" source="dIL4AxY-LMtDmRbHM10j-763" target="dIL4AxY-LMtDmRbHM10j-760">
          <mxGeometry width="50" height="50" relative="1" as="geometry">
            <mxPoint x="983" y="1984.5" as="sourcePoint" />
            <mxPoint x="1033" y="1934.5" as="targetPoint" />
          </mxGeometry>
        </mxCell>
        <mxCell id="dIL4AxY-LMtDmRbHM10j-769" value="" style="endArrow=none;html=1;rounded=1;entryX=0.5;entryY=1;entryDx=0;entryDy=0;exitX=0.5;exitY=0;exitDx=0;exitDy=0;" edge="1" parent="1" source="dIL4AxY-LMtDmRbHM10j-764" target="dIL4AxY-LMtDmRbHM10j-760">
          <mxGeometry width="50" height="50" relative="1" as="geometry">
            <mxPoint x="912" y="1989.5" as="sourcePoint" />
            <mxPoint x="962" y="1939.5" as="targetPoint" />
          </mxGeometry>
        </mxCell>
        <mxCell id="dIL4AxY-LMtDmRbHM10j-770" value="" style="endArrow=none;html=1;rounded=1;entryX=0.5;entryY=1;entryDx=0;entryDy=0;exitX=0.5;exitY=0;exitDx=0;exitDy=0;" edge="1" parent="1" source="dIL4AxY-LMtDmRbHM10j-765" target="dIL4AxY-LMtDmRbHM10j-760">
          <mxGeometry width="50" height="50" relative="1" as="geometry">
            <mxPoint x="988" y="1998.5" as="sourcePoint" />
            <mxPoint x="1038" y="1948.5" as="targetPoint" />
          </mxGeometry>
        </mxCell>
        <mxCell id="dIL4AxY-LMtDmRbHM10j-771" value="i" style="ellipse;whiteSpace=wrap;html=1;aspect=fixed;rounded=1;" vertex="1" parent="1">
          <mxGeometry x="894" y="1964.5" width="30" height="30" as="geometry" />
        </mxCell>
        <mxCell id="dIL4AxY-LMtDmRbHM10j-772" value="(" style="ellipse;whiteSpace=wrap;html=1;aspect=fixed;rounded=1;" vertex="1" parent="1">
          <mxGeometry x="941" y="1964.5" width="30" height="30" as="geometry" />
        </mxCell>
        <mxCell id="dIL4AxY-LMtDmRbHM10j-773" value="W" style="ellipse;whiteSpace=wrap;html=1;aspect=fixed;rounded=1;" vertex="1" parent="1">
          <mxGeometry x="988" y="1964.5" width="30" height="30" as="geometry" />
        </mxCell>
        <mxCell id="dIL4AxY-LMtDmRbHM10j-774" value=")" style="ellipse;whiteSpace=wrap;html=1;aspect=fixed;rounded=1;" vertex="1" parent="1">
          <mxGeometry x="1035" y="1964.5" width="30" height="30" as="geometry" />
        </mxCell>
        <mxCell id="dIL4AxY-LMtDmRbHM10j-775" value="i" style="ellipse;whiteSpace=wrap;html=1;aspect=fixed;rounded=1;" vertex="1" parent="1">
          <mxGeometry x="988" y="2018.5" width="30" height="30" as="geometry" />
        </mxCell>
        <mxCell id="dIL4AxY-LMtDmRbHM10j-776" value="" style="endArrow=none;html=1;rounded=1;entryX=0.5;entryY=1;entryDx=0;entryDy=0;exitX=0.5;exitY=0;exitDx=0;exitDy=0;" edge="1" parent="1" source="dIL4AxY-LMtDmRbHM10j-771" target="dIL4AxY-LMtDmRbHM10j-764">
          <mxGeometry width="50" height="50" relative="1" as="geometry">
            <mxPoint x="932" y="1951.5" as="sourcePoint" />
            <mxPoint x="982" y="1901.5" as="targetPoint" />
          </mxGeometry>
        </mxCell>
        <mxCell id="dIL4AxY-LMtDmRbHM10j-777" value="" style="endArrow=none;html=1;rounded=1;entryX=0.5;entryY=1;entryDx=0;entryDy=0;exitX=0.5;exitY=0;exitDx=0;exitDy=0;" edge="1" parent="1" source="dIL4AxY-LMtDmRbHM10j-772" target="dIL4AxY-LMtDmRbHM10j-764">
          <mxGeometry width="50" height="50" relative="1" as="geometry">
            <mxPoint x="865" y="2066.5" as="sourcePoint" />
            <mxPoint x="915" y="2016.5" as="targetPoint" />
          </mxGeometry>
        </mxCell>
        <mxCell id="dIL4AxY-LMtDmRbHM10j-778" value="" style="endArrow=none;html=1;rounded=1;entryX=0.5;entryY=1;entryDx=0;entryDy=0;exitX=0.5;exitY=0;exitDx=0;exitDy=0;" edge="1" parent="1" source="dIL4AxY-LMtDmRbHM10j-773" target="dIL4AxY-LMtDmRbHM10j-764">
          <mxGeometry width="50" height="50" relative="1" as="geometry">
            <mxPoint x="829" y="2076.5" as="sourcePoint" />
            <mxPoint x="879" y="2026.5" as="targetPoint" />
          </mxGeometry>
        </mxCell>
        <mxCell id="dIL4AxY-LMtDmRbHM10j-779" value="" style="endArrow=none;html=1;rounded=1;entryX=0.5;entryY=1;entryDx=0;entryDy=0;exitX=0.5;exitY=0;exitDx=0;exitDy=0;" edge="1" parent="1" source="dIL4AxY-LMtDmRbHM10j-774" target="dIL4AxY-LMtDmRbHM10j-764">
          <mxGeometry width="50" height="50" relative="1" as="geometry">
            <mxPoint x="879" y="2086.5" as="sourcePoint" />
            <mxPoint x="929" y="2036.5" as="targetPoint" />
          </mxGeometry>
        </mxCell>
        <mxCell id="dIL4AxY-LMtDmRbHM10j-780" value="" style="endArrow=none;html=1;rounded=1;entryX=0.5;entryY=1;entryDx=0;entryDy=0;exitX=0.5;exitY=0;exitDx=0;exitDy=0;" edge="1" parent="1" source="dIL4AxY-LMtDmRbHM10j-775" target="dIL4AxY-LMtDmRbHM10j-773">
          <mxGeometry width="50" height="50" relative="1" as="geometry">
            <mxPoint x="879" y="2086.5" as="sourcePoint" />
            <mxPoint x="929" y="2036.5" as="targetPoint" />
          </mxGeometry>
        </mxCell>
        <mxCell id="dIL4AxY-LMtDmRbHM10j-781" value="" style="endArrow=none;html=1;rounded=1;entryX=0.5;entryY=1;entryDx=0;entryDy=0;exitX=0.5;exitY=0;exitDx=0;exitDy=0;" edge="1" parent="1" source="dIL4AxY-LMtDmRbHM10j-760" target="dIL4AxY-LMtDmRbHM10j-752">
          <mxGeometry width="50" height="50" relative="1" as="geometry">
            <mxPoint x="778" y="1970" as="sourcePoint" />
            <mxPoint x="828" y="1920" as="targetPoint" />
          </mxGeometry>
        </mxCell>
        <mxCell id="dIL4AxY-LMtDmRbHM10j-782" value="N" style="ellipse;whiteSpace=wrap;html=1;aspect=fixed;rounded=1;" vertex="1" parent="1">
          <mxGeometry x="1134.5" y="1878" width="30" height="30" as="geometry" />
        </mxCell>
        <mxCell id="dIL4AxY-LMtDmRbHM10j-783" value="t" style="ellipse;whiteSpace=wrap;html=1;aspect=fixed;rounded=1;" vertex="1" parent="1">
          <mxGeometry x="1089.5" y="1952.5" width="30" height="30" as="geometry" />
        </mxCell>
        <mxCell id="dIL4AxY-LMtDmRbHM10j-784" value="i" style="ellipse;whiteSpace=wrap;html=1;aspect=fixed;rounded=1;" vertex="1" parent="1">
          <mxGeometry x="1136.5" y="1952.5" width="30" height="30" as="geometry" />
        </mxCell>
        <mxCell id="dIL4AxY-LMtDmRbHM10j-785" value="=" style="ellipse;whiteSpace=wrap;html=1;aspect=fixed;rounded=1;" vertex="1" parent="1">
          <mxGeometry x="1188.5" y="1952.5" width="30" height="30" as="geometry" />
        </mxCell>
        <mxCell id="dIL4AxY-LMtDmRbHM10j-786" value="E" style="ellipse;whiteSpace=wrap;html=1;aspect=fixed;rounded=1;" vertex="1" parent="1">
          <mxGeometry x="1239.5" y="1952.5" width="30" height="30" as="geometry" />
        </mxCell>
        <mxCell id="dIL4AxY-LMtDmRbHM10j-787" value=";" style="ellipse;whiteSpace=wrap;html=1;aspect=fixed;rounded=1;" vertex="1" parent="1">
          <mxGeometry x="1282.5" y="1952.5" width="30" height="30" as="geometry" />
        </mxCell>
        <mxCell id="dIL4AxY-LMtDmRbHM10j-788" value="" style="endArrow=none;html=1;rounded=1;exitX=0.5;exitY=0;exitDx=0;exitDy=0;entryX=0.5;entryY=1;entryDx=0;entryDy=0;" edge="1" parent="1" source="dIL4AxY-LMtDmRbHM10j-783" target="dIL4AxY-LMtDmRbHM10j-782">
          <mxGeometry width="50" height="50" relative="1" as="geometry">
            <mxPoint x="1149.5" y="1920.5" as="sourcePoint" />
            <mxPoint x="1199.5" y="1870.5" as="targetPoint" />
          </mxGeometry>
        </mxCell>
        <mxCell id="dIL4AxY-LMtDmRbHM10j-789" value="" style="endArrow=none;html=1;rounded=1;exitX=0.5;exitY=0;exitDx=0;exitDy=0;entryX=0.5;entryY=1;entryDx=0;entryDy=0;" edge="1" parent="1" source="dIL4AxY-LMtDmRbHM10j-784" target="dIL4AxY-LMtDmRbHM10j-782">
          <mxGeometry width="50" height="50" relative="1" as="geometry">
            <mxPoint x="1149.5" y="1920.5" as="sourcePoint" />
            <mxPoint x="1199.5" y="1870.5" as="targetPoint" />
          </mxGeometry>
        </mxCell>
        <mxCell id="dIL4AxY-LMtDmRbHM10j-790" value="" style="endArrow=none;html=1;rounded=1;entryX=0.5;entryY=1;entryDx=0;entryDy=0;exitX=0.5;exitY=0;exitDx=0;exitDy=0;" edge="1" parent="1" source="dIL4AxY-LMtDmRbHM10j-785" target="dIL4AxY-LMtDmRbHM10j-782">
          <mxGeometry width="50" height="50" relative="1" as="geometry">
            <mxPoint x="1200.5" y="2049.5" as="sourcePoint" />
            <mxPoint x="1250.5" y="1999.5" as="targetPoint" />
          </mxGeometry>
        </mxCell>
        <mxCell id="dIL4AxY-LMtDmRbHM10j-791" value="" style="endArrow=none;html=1;rounded=1;entryX=0.5;entryY=1;entryDx=0;entryDy=0;exitX=0.5;exitY=0;exitDx=0;exitDy=0;" edge="1" parent="1" source="dIL4AxY-LMtDmRbHM10j-786" target="dIL4AxY-LMtDmRbHM10j-782">
          <mxGeometry width="50" height="50" relative="1" as="geometry">
            <mxPoint x="1129.5" y="2054.5" as="sourcePoint" />
            <mxPoint x="1179.5" y="2004.5" as="targetPoint" />
          </mxGeometry>
        </mxCell>
        <mxCell id="dIL4AxY-LMtDmRbHM10j-792" value="" style="endArrow=none;html=1;rounded=1;entryX=0.5;entryY=1;entryDx=0;entryDy=0;exitX=0.5;exitY=0;exitDx=0;exitDy=0;" edge="1" parent="1" source="dIL4AxY-LMtDmRbHM10j-787" target="dIL4AxY-LMtDmRbHM10j-782">
          <mxGeometry width="50" height="50" relative="1" as="geometry">
            <mxPoint x="1205.5" y="2063.5" as="sourcePoint" />
            <mxPoint x="1255.5" y="2013.5" as="targetPoint" />
          </mxGeometry>
        </mxCell>
        <mxCell id="dIL4AxY-LMtDmRbHM10j-793" value="i" style="ellipse;whiteSpace=wrap;html=1;aspect=fixed;rounded=1;" vertex="1" parent="1">
          <mxGeometry x="1111.5" y="2029.5" width="30" height="30" as="geometry" />
        </mxCell>
        <mxCell id="dIL4AxY-LMtDmRbHM10j-794" value="(" style="ellipse;whiteSpace=wrap;html=1;aspect=fixed;rounded=1;" vertex="1" parent="1">
          <mxGeometry x="1158.5" y="2029.5" width="30" height="30" as="geometry" />
        </mxCell>
        <mxCell id="dIL4AxY-LMtDmRbHM10j-795" value="W" style="ellipse;whiteSpace=wrap;html=1;aspect=fixed;rounded=1;" vertex="1" parent="1">
          <mxGeometry x="1205.5" y="2029.5" width="30" height="30" as="geometry" />
        </mxCell>
        <mxCell id="dIL4AxY-LMtDmRbHM10j-796" value=")" style="ellipse;whiteSpace=wrap;html=1;aspect=fixed;rounded=1;" vertex="1" parent="1">
          <mxGeometry x="1252.5" y="2029.5" width="30" height="30" as="geometry" />
        </mxCell>
        <mxCell id="dIL4AxY-LMtDmRbHM10j-797" value="i" style="ellipse;whiteSpace=wrap;html=1;aspect=fixed;rounded=1;" vertex="1" parent="1">
          <mxGeometry x="1205.5" y="2083.5" width="30" height="30" as="geometry" />
        </mxCell>
        <mxCell id="dIL4AxY-LMtDmRbHM10j-798" value="" style="endArrow=none;html=1;rounded=1;entryX=0.5;entryY=1;entryDx=0;entryDy=0;exitX=0.5;exitY=0;exitDx=0;exitDy=0;" edge="1" parent="1" source="dIL4AxY-LMtDmRbHM10j-793" target="dIL4AxY-LMtDmRbHM10j-786">
          <mxGeometry width="50" height="50" relative="1" as="geometry">
            <mxPoint x="1149.5" y="2016.5" as="sourcePoint" />
            <mxPoint x="1199.5" y="1966.5" as="targetPoint" />
          </mxGeometry>
        </mxCell>
        <mxCell id="dIL4AxY-LMtDmRbHM10j-799" value="" style="endArrow=none;html=1;rounded=1;entryX=0.5;entryY=1;entryDx=0;entryDy=0;exitX=0.5;exitY=0;exitDx=0;exitDy=0;" edge="1" parent="1" source="dIL4AxY-LMtDmRbHM10j-794" target="dIL4AxY-LMtDmRbHM10j-786">
          <mxGeometry width="50" height="50" relative="1" as="geometry">
            <mxPoint x="1082.5" y="2131.5" as="sourcePoint" />
            <mxPoint x="1132.5" y="2081.5" as="targetPoint" />
          </mxGeometry>
        </mxCell>
        <mxCell id="dIL4AxY-LMtDmRbHM10j-800" value="" style="endArrow=none;html=1;rounded=1;entryX=0.5;entryY=1;entryDx=0;entryDy=0;exitX=0.5;exitY=0;exitDx=0;exitDy=0;" edge="1" parent="1" source="dIL4AxY-LMtDmRbHM10j-795" target="dIL4AxY-LMtDmRbHM10j-786">
          <mxGeometry width="50" height="50" relative="1" as="geometry">
            <mxPoint x="1046.5" y="2141.5" as="sourcePoint" />
            <mxPoint x="1096.5" y="2091.5" as="targetPoint" />
          </mxGeometry>
        </mxCell>
        <mxCell id="dIL4AxY-LMtDmRbHM10j-801" value="" style="endArrow=none;html=1;rounded=1;entryX=0.5;entryY=1;entryDx=0;entryDy=0;exitX=0.5;exitY=0;exitDx=0;exitDy=0;" edge="1" parent="1" source="dIL4AxY-LMtDmRbHM10j-796" target="dIL4AxY-LMtDmRbHM10j-786">
          <mxGeometry width="50" height="50" relative="1" as="geometry">
            <mxPoint x="1096.5" y="2151.5" as="sourcePoint" />
            <mxPoint x="1146.5" y="2101.5" as="targetPoint" />
          </mxGeometry>
        </mxCell>
        <mxCell id="dIL4AxY-LMtDmRbHM10j-802" value="" style="endArrow=none;html=1;rounded=1;entryX=0.5;entryY=1;entryDx=0;entryDy=0;exitX=0.5;exitY=0;exitDx=0;exitDy=0;" edge="1" parent="1" source="dIL4AxY-LMtDmRbHM10j-797" target="dIL4AxY-LMtDmRbHM10j-795">
          <mxGeometry width="50" height="50" relative="1" as="geometry">
            <mxPoint x="1096.5" y="2151.5" as="sourcePoint" />
            <mxPoint x="1146.5" y="2101.5" as="targetPoint" />
          </mxGeometry>
        </mxCell>
        <mxCell id="dIL4AxY-LMtDmRbHM10j-803" value="" style="endArrow=none;html=1;rounded=1;entryX=0.5;entryY=0;entryDx=0;entryDy=0;exitX=0.5;exitY=1;exitDx=0;exitDy=0;" edge="1" parent="1" source="dIL4AxY-LMtDmRbHM10j-760" target="dIL4AxY-LMtDmRbHM10j-782">
          <mxGeometry width="50" height="50" relative="1" as="geometry">
            <mxPoint x="1042" y="1831" as="sourcePoint" />
            <mxPoint x="1092" y="1781" as="targetPoint" />
          </mxGeometry>
        </mxCell>
        <mxCell id="dIL4AxY-LMtDmRbHM10j-804" value="5" style="ellipse;whiteSpace=wrap;html=1;aspect=fixed;rounded=1;" vertex="1" parent="1">
          <mxGeometry x="1334" y="1955" width="30" height="30" as="geometry" />
        </mxCell>
        <mxCell id="dIL4AxY-LMtDmRbHM10j-805" value="" style="endArrow=none;html=1;rounded=1;entryX=0.5;entryY=0;entryDx=0;entryDy=0;exitX=0.5;exitY=1;exitDx=0;exitDy=0;" edge="1" parent="1" source="dIL4AxY-LMtDmRbHM10j-782" target="dIL4AxY-LMtDmRbHM10j-804">
          <mxGeometry width="50" height="50" relative="1" as="geometry">
            <mxPoint x="1285" y="1912" as="sourcePoint" />
            <mxPoint x="1335" y="1862" as="targetPoint" />
          </mxGeometry>
        </mxCell>
        <mxCell id="dIL4AxY-LMtDmRbHM10j-806" value="5" style="ellipse;whiteSpace=wrap;html=1;aspect=fixed;rounded=1;" vertex="1" parent="1">
          <mxGeometry x="-12" y="1701" width="30" height="30" as="geometry" />
        </mxCell>
        <mxCell id="dIL4AxY-LMtDmRbHM10j-807" value=";" style="ellipse;whiteSpace=wrap;html=1;aspect=fixed;rounded=1;" vertex="1" parent="1">
          <mxGeometry x="47" y="1763" width="30" height="30" as="geometry" />
        </mxCell>
        <mxCell id="dIL4AxY-LMtDmRbHM10j-808" value="z" style="ellipse;whiteSpace=wrap;html=1;aspect=fixed;rounded=1;" vertex="1" parent="1">
          <mxGeometry x="-37" y="1763" width="30" height="30" as="geometry" />
        </mxCell>
        <mxCell id="dIL4AxY-LMtDmRbHM10j-809" value="i" style="ellipse;whiteSpace=wrap;html=1;aspect=fixed;rounded=1;" vertex="1" parent="1">
          <mxGeometry x="6" y="1763" width="30" height="30" as="geometry" />
        </mxCell>
        <mxCell id="dIL4AxY-LMtDmRbHM10j-810" value="" style="endArrow=none;html=1;rounded=1;entryX=0.5;entryY=1;entryDx=0;entryDy=0;exitX=0.5;exitY=0;exitDx=0;exitDy=0;" edge="1" parent="1" source="dIL4AxY-LMtDmRbHM10j-808" target="dIL4AxY-LMtDmRbHM10j-806">
          <mxGeometry width="50" height="50" relative="1" as="geometry">
            <mxPoint x="-57" y="1806" as="sourcePoint" />
            <mxPoint x="-7" y="1756" as="targetPoint" />
          </mxGeometry>
        </mxCell>
        <mxCell id="dIL4AxY-LMtDmRbHM10j-811" value="" style="endArrow=none;html=1;rounded=1;entryX=0.5;entryY=1;entryDx=0;entryDy=0;exitX=0.5;exitY=0;exitDx=0;exitDy=0;" edge="1" parent="1" source="dIL4AxY-LMtDmRbHM10j-809" target="dIL4AxY-LMtDmRbHM10j-806">
          <mxGeometry width="50" height="50" relative="1" as="geometry">
            <mxPoint x="3" y="1859" as="sourcePoint" />
            <mxPoint x="53" y="1809" as="targetPoint" />
          </mxGeometry>
        </mxCell>
        <mxCell id="dIL4AxY-LMtDmRbHM10j-812" value="" style="endArrow=none;html=1;rounded=1;entryX=0.5;entryY=1;entryDx=0;entryDy=0;exitX=0.5;exitY=0;exitDx=0;exitDy=0;" edge="1" parent="1" source="dIL4AxY-LMtDmRbHM10j-807" target="dIL4AxY-LMtDmRbHM10j-806">
          <mxGeometry width="50" height="50" relative="1" as="geometry">
            <mxPoint x="16" y="1857" as="sourcePoint" />
            <mxPoint x="66" y="1807" as="targetPoint" />
          </mxGeometry>
        </mxCell>
        <mxCell id="dIL4AxY-LMtDmRbHM10j-813" value="N" style="ellipse;whiteSpace=wrap;html=1;aspect=fixed;rounded=1;" vertex="1" parent="1">
          <mxGeometry x="103" y="1762" width="30" height="30" as="geometry" />
        </mxCell>
        <mxCell id="dIL4AxY-LMtDmRbHM10j-814" value=";" style="ellipse;whiteSpace=wrap;html=1;aspect=fixed;rounded=1;" vertex="1" parent="1">
          <mxGeometry x="162" y="1824" width="30" height="30" as="geometry" />
        </mxCell>
        <mxCell id="dIL4AxY-LMtDmRbHM10j-815" value="z" style="ellipse;whiteSpace=wrap;html=1;aspect=fixed;rounded=1;" vertex="1" parent="1">
          <mxGeometry x="78" y="1824" width="30" height="30" as="geometry" />
        </mxCell>
        <mxCell id="dIL4AxY-LMtDmRbHM10j-816" value="i" style="ellipse;whiteSpace=wrap;html=1;aspect=fixed;rounded=1;" vertex="1" parent="1">
          <mxGeometry x="121" y="1824" width="30" height="30" as="geometry" />
        </mxCell>
        <mxCell id="dIL4AxY-LMtDmRbHM10j-817" value="" style="endArrow=none;html=1;rounded=1;entryX=0.5;entryY=1;entryDx=0;entryDy=0;exitX=0.5;exitY=0;exitDx=0;exitDy=0;" edge="1" parent="1" source="dIL4AxY-LMtDmRbHM10j-815" target="dIL4AxY-LMtDmRbHM10j-813">
          <mxGeometry width="50" height="50" relative="1" as="geometry">
            <mxPoint x="58" y="1867" as="sourcePoint" />
            <mxPoint x="108" y="1817" as="targetPoint" />
          </mxGeometry>
        </mxCell>
        <mxCell id="dIL4AxY-LMtDmRbHM10j-818" value="" style="endArrow=none;html=1;rounded=1;entryX=0.5;entryY=1;entryDx=0;entryDy=0;exitX=0.5;exitY=0;exitDx=0;exitDy=0;" edge="1" parent="1" source="dIL4AxY-LMtDmRbHM10j-816" target="dIL4AxY-LMtDmRbHM10j-813">
          <mxGeometry width="50" height="50" relative="1" as="geometry">
            <mxPoint x="118" y="1920" as="sourcePoint" />
            <mxPoint x="168" y="1870" as="targetPoint" />
          </mxGeometry>
        </mxCell>
        <mxCell id="dIL4AxY-LMtDmRbHM10j-819" value="" style="endArrow=none;html=1;rounded=1;entryX=0.5;entryY=1;entryDx=0;entryDy=0;exitX=0.5;exitY=0;exitDx=0;exitDy=0;" edge="1" parent="1" source="dIL4AxY-LMtDmRbHM10j-814" target="dIL4AxY-LMtDmRbHM10j-813">
          <mxGeometry width="50" height="50" relative="1" as="geometry">
            <mxPoint x="131" y="1918" as="sourcePoint" />
            <mxPoint x="181" y="1868" as="targetPoint" />
          </mxGeometry>
        </mxCell>
        <mxCell id="dIL4AxY-LMtDmRbHM10j-820" value="" style="endArrow=none;html=1;rounded=1;entryX=0.5;entryY=1;entryDx=0;entryDy=0;exitX=0.5;exitY=0;exitDx=0;exitDy=0;" edge="1" parent="1" source="dIL4AxY-LMtDmRbHM10j-813" target="dIL4AxY-LMtDmRbHM10j-806">
          <mxGeometry width="50" height="50" relative="1" as="geometry">
            <mxPoint x="-22" y="1897" as="sourcePoint" />
            <mxPoint x="28" y="1847" as="targetPoint" />
          </mxGeometry>
        </mxCell>
        <mxCell id="dIL4AxY-LMtDmRbHM10j-821" value="i" style="ellipse;whiteSpace=wrap;html=1;aspect=fixed;rounded=1;" vertex="1" parent="1">
          <mxGeometry x="235" y="1900" width="30" height="30" as="geometry" />
        </mxCell>
        <mxCell id="dIL4AxY-LMtDmRbHM10j-822" value=";" style="ellipse;whiteSpace=wrap;html=1;aspect=fixed;rounded=1;" vertex="1" parent="1">
          <mxGeometry x="279" y="1899" width="30" height="30" as="geometry" />
        </mxCell>
        <mxCell id="dIL4AxY-LMtDmRbHM10j-823" value="t" style="ellipse;whiteSpace=wrap;html=1;aspect=fixed;rounded=1;" vertex="1" parent="1">
          <mxGeometry x="193" y="1899" width="30" height="30" as="geometry" />
        </mxCell>
        <mxCell id="dIL4AxY-LMtDmRbHM10j-824" value="N" style="ellipse;whiteSpace=wrap;html=1;aspect=fixed;rounded=1;" vertex="1" parent="1">
          <mxGeometry x="216" y="1824" width="30" height="30" as="geometry" />
        </mxCell>
        <mxCell id="dIL4AxY-LMtDmRbHM10j-825" value="" style="endArrow=none;html=1;rounded=1;entryX=0.5;entryY=1;entryDx=0;entryDy=0;exitX=0.5;exitY=0;exitDx=0;exitDy=0;" edge="1" parent="1" source="dIL4AxY-LMtDmRbHM10j-824" target="dIL4AxY-LMtDmRbHM10j-813">
          <mxGeometry width="50" height="50" relative="1" as="geometry">
            <mxPoint x="52" y="1942" as="sourcePoint" />
            <mxPoint x="102" y="1892" as="targetPoint" />
          </mxGeometry>
        </mxCell>
        <mxCell id="dIL4AxY-LMtDmRbHM10j-826" value="" style="endArrow=none;html=1;rounded=1;entryX=0.5;entryY=1;entryDx=0;entryDy=0;exitX=0.5;exitY=0;exitDx=0;exitDy=0;" edge="1" parent="1" source="dIL4AxY-LMtDmRbHM10j-823" target="dIL4AxY-LMtDmRbHM10j-824">
          <mxGeometry width="50" height="50" relative="1" as="geometry">
            <mxPoint x="115" y="1948" as="sourcePoint" />
            <mxPoint x="165" y="1898" as="targetPoint" />
          </mxGeometry>
        </mxCell>
        <mxCell id="dIL4AxY-LMtDmRbHM10j-827" value="" style="endArrow=none;html=1;rounded=1;entryX=0.5;entryY=1;entryDx=0;entryDy=0;exitX=0.5;exitY=0;exitDx=0;exitDy=0;" edge="1" parent="1" source="dIL4AxY-LMtDmRbHM10j-821" target="dIL4AxY-LMtDmRbHM10j-824">
          <mxGeometry width="50" height="50" relative="1" as="geometry">
            <mxPoint x="214" y="2008" as="sourcePoint" />
            <mxPoint x="264" y="1958" as="targetPoint" />
          </mxGeometry>
        </mxCell>
        <mxCell id="dIL4AxY-LMtDmRbHM10j-828" value="" style="endArrow=none;html=1;rounded=1;entryX=0.5;entryY=1;entryDx=0;entryDy=0;exitX=0.5;exitY=0;exitDx=0;exitDy=0;" edge="1" parent="1" source="dIL4AxY-LMtDmRbHM10j-822" target="dIL4AxY-LMtDmRbHM10j-824">
          <mxGeometry width="50" height="50" relative="1" as="geometry">
            <mxPoint x="219" y="2009" as="sourcePoint" />
            <mxPoint x="269" y="1959" as="targetPoint" />
          </mxGeometry>
        </mxCell>
        <mxCell id="dIL4AxY-LMtDmRbHM10j-829" value="N" style="ellipse;whiteSpace=wrap;html=1;aspect=fixed;rounded=1;" vertex="1" parent="1">
          <mxGeometry x="336" y="1899" width="30" height="30" as="geometry" />
        </mxCell>
        <mxCell id="dIL4AxY-LMtDmRbHM10j-830" value="" style="endArrow=none;html=1;rounded=1;entryX=0.5;entryY=0;entryDx=0;entryDy=0;exitX=0.5;exitY=1;exitDx=0;exitDy=0;" edge="1" parent="1" source="dIL4AxY-LMtDmRbHM10j-824" target="dIL4AxY-LMtDmRbHM10j-829">
          <mxGeometry width="50" height="50" relative="1" as="geometry">
            <mxPoint x="252" y="1843" as="sourcePoint" />
            <mxPoint x="372" y="1886" as="targetPoint" />
          </mxGeometry>
        </mxCell>
        <mxCell id="dIL4AxY-LMtDmRbHM10j-831" value="w" style="ellipse;whiteSpace=wrap;html=1;aspect=fixed;rounded=1;" vertex="1" parent="1">
          <mxGeometry x="181" y="1974" width="30" height="30" as="geometry" />
        </mxCell>
        <mxCell id="dIL4AxY-LMtDmRbHM10j-832" value="I" style="ellipse;whiteSpace=wrap;html=1;aspect=fixed;rounded=1;" vertex="1" parent="1">
          <mxGeometry x="223" y="1974" width="30" height="30" as="geometry" />
        </mxCell>
        <mxCell id="dIL4AxY-LMtDmRbHM10j-833" value="|" style="ellipse;whiteSpace=wrap;html=1;aspect=fixed;rounded=1;" vertex="1" parent="1">
          <mxGeometry x="266" y="1974" width="30" height="30" as="geometry" />
        </mxCell>
        <mxCell id="dIL4AxY-LMtDmRbHM10j-834" value="X" style="ellipse;whiteSpace=wrap;html=1;aspect=fixed;rounded=1;" vertex="1" parent="1">
          <mxGeometry x="309" y="1974" width="30" height="30" as="geometry" />
        </mxCell>
        <mxCell id="dIL4AxY-LMtDmRbHM10j-835" value="" style="endArrow=none;html=1;rounded=1;entryX=0.5;entryY=1;entryDx=0;entryDy=0;exitX=0.5;exitY=0;exitDx=0;exitDy=0;" edge="1" parent="1" source="dIL4AxY-LMtDmRbHM10j-831" target="dIL4AxY-LMtDmRbHM10j-829">
          <mxGeometry width="50" height="50" relative="1" as="geometry">
            <mxPoint x="152" y="2067" as="sourcePoint" />
            <mxPoint x="202" y="2017" as="targetPoint" />
          </mxGeometry>
        </mxCell>
        <mxCell id="dIL4AxY-LMtDmRbHM10j-836" value="" style="endArrow=none;html=1;rounded=1;entryX=0.5;entryY=1;entryDx=0;entryDy=0;exitX=0.5;exitY=0;exitDx=0;exitDy=0;" edge="1" parent="1" source="dIL4AxY-LMtDmRbHM10j-832" target="dIL4AxY-LMtDmRbHM10j-829">
          <mxGeometry width="50" height="50" relative="1" as="geometry">
            <mxPoint x="227" y="2136" as="sourcePoint" />
            <mxPoint x="277" y="2086" as="targetPoint" />
          </mxGeometry>
        </mxCell>
        <mxCell id="dIL4AxY-LMtDmRbHM10j-837" value="" style="endArrow=none;html=1;rounded=1;entryX=0.5;entryY=1;entryDx=0;entryDy=0;exitX=0.5;exitY=0;exitDx=0;exitDy=0;" edge="1" parent="1" source="dIL4AxY-LMtDmRbHM10j-833" target="dIL4AxY-LMtDmRbHM10j-829">
          <mxGeometry width="50" height="50" relative="1" as="geometry">
            <mxPoint x="328" y="2080" as="sourcePoint" />
            <mxPoint x="378" y="2030" as="targetPoint" />
          </mxGeometry>
        </mxCell>
        <mxCell id="dIL4AxY-LMtDmRbHM10j-838" value="" style="endArrow=none;html=1;rounded=1;entryX=0.5;entryY=1;entryDx=0;entryDy=0;exitX=0.5;exitY=0;exitDx=0;exitDy=0;" edge="1" parent="1" source="dIL4AxY-LMtDmRbHM10j-834" target="dIL4AxY-LMtDmRbHM10j-829">
          <mxGeometry width="50" height="50" relative="1" as="geometry">
            <mxPoint x="348" y="2114" as="sourcePoint" />
            <mxPoint x="398" y="2064" as="targetPoint" />
          </mxGeometry>
        </mxCell>
        <mxCell id="dIL4AxY-LMtDmRbHM10j-839" value=":" style="ellipse;whiteSpace=wrap;html=1;aspect=fixed;rounded=1;" vertex="1" parent="1">
          <mxGeometry x="65" y="2035" width="30" height="30" as="geometry" />
        </mxCell>
        <mxCell id="dIL4AxY-LMtDmRbHM10j-840" value="E" style="ellipse;whiteSpace=wrap;html=1;aspect=fixed;rounded=1;" vertex="1" parent="1">
          <mxGeometry x="105" y="2035" width="30" height="30" as="geometry" />
        </mxCell>
        <mxCell id="dIL4AxY-LMtDmRbHM10j-841" value="q" style="ellipse;whiteSpace=wrap;html=1;aspect=fixed;rounded=1;" vertex="1" parent="1">
          <mxGeometry x="145" y="2035" width="30" height="30" as="geometry" />
        </mxCell>
        <mxCell id="dIL4AxY-LMtDmRbHM10j-842" value="E" style="ellipse;whiteSpace=wrap;html=1;aspect=fixed;rounded=1;" vertex="1" parent="1">
          <mxGeometry x="187" y="2035" width="30" height="30" as="geometry" />
        </mxCell>
        <mxCell id="dIL4AxY-LMtDmRbHM10j-843" value="i" style="ellipse;whiteSpace=wrap;html=1;aspect=fixed;rounded=1;" vertex="1" parent="1">
          <mxGeometry x="105" y="2091" width="30" height="30" as="geometry" />
        </mxCell>
        <mxCell id="dIL4AxY-LMtDmRbHM10j-844" value="i" style="ellipse;whiteSpace=wrap;html=1;aspect=fixed;rounded=1;" vertex="1" parent="1">
          <mxGeometry x="188" y="2091" width="30" height="30" as="geometry" />
        </mxCell>
        <mxCell id="dIL4AxY-LMtDmRbHM10j-845" value="" style="endArrow=none;html=1;rounded=1;entryX=0.5;entryY=1;entryDx=0;entryDy=0;exitX=0.5;exitY=0;exitDx=0;exitDy=0;" edge="1" parent="1" source="dIL4AxY-LMtDmRbHM10j-839" target="dIL4AxY-LMtDmRbHM10j-832">
          <mxGeometry width="50" height="50" relative="1" as="geometry">
            <mxPoint x="121" y="2065" as="sourcePoint" />
            <mxPoint x="171" y="2008" as="targetPoint" />
          </mxGeometry>
        </mxCell>
        <mxCell id="dIL4AxY-LMtDmRbHM10j-846" value="" style="endArrow=none;html=1;rounded=1;entryX=0.5;entryY=1;entryDx=0;entryDy=0;exitX=0.5;exitY=0;exitDx=0;exitDy=0;" edge="1" parent="1" source="dIL4AxY-LMtDmRbHM10j-840" target="dIL4AxY-LMtDmRbHM10j-832">
          <mxGeometry width="50" height="50" relative="1" as="geometry">
            <mxPoint x="122" y="2136" as="sourcePoint" />
            <mxPoint x="172" y="2086" as="targetPoint" />
          </mxGeometry>
        </mxCell>
        <mxCell id="dIL4AxY-LMtDmRbHM10j-847" value="" style="endArrow=none;html=1;rounded=1;entryX=0.5;entryY=1;entryDx=0;entryDy=0;exitX=0.5;exitY=0;exitDx=0;exitDy=0;" edge="1" parent="1" source="dIL4AxY-LMtDmRbHM10j-841" target="dIL4AxY-LMtDmRbHM10j-832">
          <mxGeometry width="50" height="50" relative="1" as="geometry">
            <mxPoint x="138" y="2144" as="sourcePoint" />
            <mxPoint x="188" y="2094" as="targetPoint" />
          </mxGeometry>
        </mxCell>
        <mxCell id="dIL4AxY-LMtDmRbHM10j-848" value="" style="endArrow=none;html=1;rounded=1;entryX=0.5;entryY=1;entryDx=0;entryDy=0;exitX=0.5;exitY=0;exitDx=0;exitDy=0;" edge="1" parent="1" source="dIL4AxY-LMtDmRbHM10j-842" target="dIL4AxY-LMtDmRbHM10j-832">
          <mxGeometry width="50" height="50" relative="1" as="geometry">
            <mxPoint x="110" y="2141" as="sourcePoint" />
            <mxPoint x="160" y="2091" as="targetPoint" />
          </mxGeometry>
        </mxCell>
        <mxCell id="dIL4AxY-LMtDmRbHM10j-849" value="" style="endArrow=none;html=1;rounded=1;entryX=0.5;entryY=1;entryDx=0;entryDy=0;exitX=0.5;exitY=0;exitDx=0;exitDy=0;" edge="1" parent="1" source="dIL4AxY-LMtDmRbHM10j-843" target="dIL4AxY-LMtDmRbHM10j-840">
          <mxGeometry width="50" height="50" relative="1" as="geometry">
            <mxPoint x="21" y="2148" as="sourcePoint" />
            <mxPoint x="71" y="2098" as="targetPoint" />
          </mxGeometry>
        </mxCell>
        <mxCell id="dIL4AxY-LMtDmRbHM10j-850" value="" style="endArrow=none;html=1;rounded=1;entryX=0.5;entryY=1;entryDx=0;entryDy=0;exitX=0.5;exitY=0;exitDx=0;exitDy=0;" edge="1" parent="1" source="dIL4AxY-LMtDmRbHM10j-844" target="dIL4AxY-LMtDmRbHM10j-842">
          <mxGeometry width="50" height="50" relative="1" as="geometry">
            <mxPoint x="154" y="2172" as="sourcePoint" />
            <mxPoint x="204" y="2122" as="targetPoint" />
          </mxGeometry>
        </mxCell>
        <mxCell id="dIL4AxY-LMtDmRbHM10j-851" value="{" style="ellipse;whiteSpace=wrap;html=1;aspect=fixed;rounded=1;" vertex="1" parent="1">
          <mxGeometry x="230" y="2035" width="30" height="30" as="geometry" />
        </mxCell>
        <mxCell id="dIL4AxY-LMtDmRbHM10j-852" value="N" style="ellipse;whiteSpace=wrap;html=1;aspect=fixed;rounded=1;" vertex="1" parent="1">
          <mxGeometry x="272.63" y="2035" width="30" height="30" as="geometry" />
        </mxCell>
        <mxCell id="dIL4AxY-LMtDmRbHM10j-853" value="}" style="ellipse;whiteSpace=wrap;html=1;aspect=fixed;rounded=1;" vertex="1" parent="1">
          <mxGeometry x="316" y="2035" width="30" height="30" as="geometry" />
        </mxCell>
        <mxCell id="dIL4AxY-LMtDmRbHM10j-854" value="?" style="ellipse;whiteSpace=wrap;html=1;aspect=fixed;rounded=1;" vertex="1" parent="1">
          <mxGeometry x="361.63" y="2035" width="30" height="30" as="geometry" />
        </mxCell>
        <mxCell id="dIL4AxY-LMtDmRbHM10j-855" value="{" style="ellipse;whiteSpace=wrap;html=1;aspect=fixed;rounded=1;" vertex="1" parent="1">
          <mxGeometry x="404.37" y="2035" width="30" height="30" as="geometry" />
        </mxCell>
        <mxCell id="dIL4AxY-LMtDmRbHM10j-856" value="N" style="ellipse;whiteSpace=wrap;html=1;aspect=fixed;rounded=1;" vertex="1" parent="1">
          <mxGeometry x="448" y="2035" width="30" height="30" as="geometry" />
        </mxCell>
        <mxCell id="dIL4AxY-LMtDmRbHM10j-857" value="}" style="ellipse;whiteSpace=wrap;html=1;aspect=fixed;rounded=1;" vertex="1" parent="1">
          <mxGeometry x="494" y="2035" width="30" height="30" as="geometry" />
        </mxCell>
        <mxCell id="dIL4AxY-LMtDmRbHM10j-858" value="=" style="ellipse;whiteSpace=wrap;html=1;aspect=fixed;rounded=1;" vertex="1" parent="1">
          <mxGeometry x="276" y="2102" width="30" height="30" as="geometry" />
        </mxCell>
        <mxCell id="dIL4AxY-LMtDmRbHM10j-859" value="E" style="ellipse;whiteSpace=wrap;html=1;aspect=fixed;rounded=1;" vertex="1" parent="1">
          <mxGeometry x="319" y="2102" width="30" height="30" as="geometry" />
        </mxCell>
        <mxCell id="dIL4AxY-LMtDmRbHM10j-860" value="i" style="ellipse;whiteSpace=wrap;html=1;aspect=fixed;rounded=1;" vertex="1" parent="1">
          <mxGeometry x="233" y="2102" width="30" height="30" as="geometry" />
        </mxCell>
        <mxCell id="dIL4AxY-LMtDmRbHM10j-861" value="i" style="ellipse;whiteSpace=wrap;html=1;aspect=fixed;rounded=1;" vertex="1" parent="1">
          <mxGeometry x="319" y="2160" width="30" height="30" as="geometry" />
        </mxCell>
        <mxCell id="dIL4AxY-LMtDmRbHM10j-862" value="" style="endArrow=none;html=1;rounded=1;entryX=0.5;entryY=1;entryDx=0;entryDy=0;exitX=0.5;exitY=0;exitDx=0;exitDy=0;" edge="1" parent="1" source="dIL4AxY-LMtDmRbHM10j-861" target="dIL4AxY-LMtDmRbHM10j-859">
          <mxGeometry width="50" height="50" relative="1" as="geometry">
            <mxPoint x="418" y="2050.5" as="sourcePoint" />
            <mxPoint x="468" y="2000.5" as="targetPoint" />
          </mxGeometry>
        </mxCell>
        <mxCell id="dIL4AxY-LMtDmRbHM10j-863" value=";" style="ellipse;whiteSpace=wrap;html=1;aspect=fixed;rounded=1;" vertex="1" parent="1">
          <mxGeometry x="368" y="2102" width="30" height="30" as="geometry" />
        </mxCell>
        <mxCell id="dIL4AxY-LMtDmRbHM10j-864" value="=" style="ellipse;whiteSpace=wrap;html=1;aspect=fixed;rounded=1;" vertex="1" parent="1">
          <mxGeometry x="460.37" y="2105" width="30" height="30" as="geometry" />
        </mxCell>
        <mxCell id="dIL4AxY-LMtDmRbHM10j-865" value="E" style="ellipse;whiteSpace=wrap;html=1;aspect=fixed;rounded=1;" vertex="1" parent="1">
          <mxGeometry x="503.37" y="2105" width="30" height="30" as="geometry" />
        </mxCell>
        <mxCell id="dIL4AxY-LMtDmRbHM10j-866" value="i" style="ellipse;whiteSpace=wrap;html=1;aspect=fixed;rounded=1;" vertex="1" parent="1">
          <mxGeometry x="417.37" y="2105" width="30" height="30" as="geometry" />
        </mxCell>
        <mxCell id="dIL4AxY-LMtDmRbHM10j-867" value="i" style="ellipse;whiteSpace=wrap;html=1;aspect=fixed;rounded=1;" vertex="1" parent="1">
          <mxGeometry x="503.37" y="2163" width="30" height="30" as="geometry" />
        </mxCell>
        <mxCell id="dIL4AxY-LMtDmRbHM10j-868" value="" style="endArrow=none;html=1;rounded=1;entryX=0.5;entryY=1;entryDx=0;entryDy=0;exitX=0.5;exitY=0;exitDx=0;exitDy=0;" edge="1" parent="1" source="dIL4AxY-LMtDmRbHM10j-867" target="dIL4AxY-LMtDmRbHM10j-865">
          <mxGeometry width="50" height="50" relative="1" as="geometry">
            <mxPoint x="602.37" y="2053.5" as="sourcePoint" />
            <mxPoint x="652.37" y="2003.5" as="targetPoint" />
          </mxGeometry>
        </mxCell>
        <mxCell id="dIL4AxY-LMtDmRbHM10j-869" value=";" style="ellipse;whiteSpace=wrap;html=1;aspect=fixed;rounded=1;" vertex="1" parent="1">
          <mxGeometry x="552.37" y="2105" width="30" height="30" as="geometry" />
        </mxCell>
        <mxCell id="dIL4AxY-LMtDmRbHM10j-870" value="" style="endArrow=none;html=1;rounded=1;entryX=0.5;entryY=1;entryDx=0;entryDy=0;exitX=0.5;exitY=0;exitDx=0;exitDy=0;" edge="1" parent="1" source="dIL4AxY-LMtDmRbHM10j-860" target="dIL4AxY-LMtDmRbHM10j-852">
          <mxGeometry width="50" height="50" relative="1" as="geometry">
            <mxPoint x="236" y="2214" as="sourcePoint" />
            <mxPoint x="286" y="2164" as="targetPoint" />
          </mxGeometry>
        </mxCell>
        <mxCell id="dIL4AxY-LMtDmRbHM10j-871" value="" style="endArrow=none;html=1;rounded=1;entryX=0.5;entryY=1;entryDx=0;entryDy=0;exitX=0.5;exitY=0;exitDx=0;exitDy=0;" edge="1" parent="1" source="dIL4AxY-LMtDmRbHM10j-858" target="dIL4AxY-LMtDmRbHM10j-852">
          <mxGeometry width="50" height="50" relative="1" as="geometry">
            <mxPoint x="267" y="2203" as="sourcePoint" />
            <mxPoint x="317" y="2153" as="targetPoint" />
          </mxGeometry>
        </mxCell>
        <mxCell id="dIL4AxY-LMtDmRbHM10j-872" value="" style="endArrow=none;html=1;rounded=1;entryX=0.5;entryY=1;entryDx=0;entryDy=0;exitX=0.5;exitY=0;exitDx=0;exitDy=0;" edge="1" parent="1" source="dIL4AxY-LMtDmRbHM10j-859" target="dIL4AxY-LMtDmRbHM10j-852">
          <mxGeometry width="50" height="50" relative="1" as="geometry">
            <mxPoint x="251" y="2211" as="sourcePoint" />
            <mxPoint x="301" y="2161" as="targetPoint" />
          </mxGeometry>
        </mxCell>
        <mxCell id="dIL4AxY-LMtDmRbHM10j-873" value="" style="endArrow=none;html=1;rounded=1;entryX=0.5;entryY=1;entryDx=0;entryDy=0;exitX=0.5;exitY=0;exitDx=0;exitDy=0;" edge="1" parent="1" source="dIL4AxY-LMtDmRbHM10j-863" target="dIL4AxY-LMtDmRbHM10j-852">
          <mxGeometry width="50" height="50" relative="1" as="geometry">
            <mxPoint x="250" y="2217" as="sourcePoint" />
            <mxPoint x="295" y="2081" as="targetPoint" />
          </mxGeometry>
        </mxCell>
        <mxCell id="dIL4AxY-LMtDmRbHM10j-874" value="" style="endArrow=none;html=1;rounded=1;entryX=0.5;entryY=1;entryDx=0;entryDy=0;exitX=0.5;exitY=0;exitDx=0;exitDy=0;" edge="1" parent="1" source="dIL4AxY-LMtDmRbHM10j-866" target="dIL4AxY-LMtDmRbHM10j-856">
          <mxGeometry width="50" height="50" relative="1" as="geometry">
            <mxPoint x="416" y="2255" as="sourcePoint" />
            <mxPoint x="466" y="2205" as="targetPoint" />
          </mxGeometry>
        </mxCell>
        <mxCell id="dIL4AxY-LMtDmRbHM10j-875" value="" style="endArrow=none;html=1;rounded=1;entryX=0.5;entryY=1;entryDx=0;entryDy=0;exitX=0.5;exitY=0;exitDx=0;exitDy=0;" edge="1" parent="1" source="dIL4AxY-LMtDmRbHM10j-864" target="dIL4AxY-LMtDmRbHM10j-856">
          <mxGeometry width="50" height="50" relative="1" as="geometry">
            <mxPoint x="431" y="2199" as="sourcePoint" />
            <mxPoint x="481" y="2149" as="targetPoint" />
          </mxGeometry>
        </mxCell>
        <mxCell id="dIL4AxY-LMtDmRbHM10j-876" value="" style="endArrow=none;html=1;rounded=1;entryX=0.5;entryY=1;entryDx=0;entryDy=0;exitX=0.5;exitY=0;exitDx=0;exitDy=0;" edge="1" parent="1" source="dIL4AxY-LMtDmRbHM10j-865" target="dIL4AxY-LMtDmRbHM10j-856">
          <mxGeometry width="50" height="50" relative="1" as="geometry">
            <mxPoint x="391" y="2241" as="sourcePoint" />
            <mxPoint x="441" y="2191" as="targetPoint" />
          </mxGeometry>
        </mxCell>
        <mxCell id="dIL4AxY-LMtDmRbHM10j-877" value="" style="endArrow=none;html=1;rounded=1;entryX=0.5;entryY=1;entryDx=0;entryDy=0;exitX=0.5;exitY=0;exitDx=0;exitDy=0;" edge="1" parent="1" source="dIL4AxY-LMtDmRbHM10j-869" target="dIL4AxY-LMtDmRbHM10j-856">
          <mxGeometry width="50" height="50" relative="1" as="geometry">
            <mxPoint x="416" y="2252" as="sourcePoint" />
            <mxPoint x="466" y="2202" as="targetPoint" />
          </mxGeometry>
        </mxCell>
        <mxCell id="dIL4AxY-LMtDmRbHM10j-878" value="" style="endArrow=none;html=1;rounded=1;entryX=0.5;entryY=1;entryDx=0;entryDy=0;exitX=0.5;exitY=0;exitDx=0;exitDy=0;" edge="1" parent="1" source="dIL4AxY-LMtDmRbHM10j-851" target="dIL4AxY-LMtDmRbHM10j-834">
          <mxGeometry width="50" height="50" relative="1" as="geometry">
            <mxPoint x="209" y="2256" as="sourcePoint" />
            <mxPoint x="259" y="2206" as="targetPoint" />
          </mxGeometry>
        </mxCell>
        <mxCell id="dIL4AxY-LMtDmRbHM10j-879" value="" style="endArrow=none;html=1;rounded=1;entryX=0.5;entryY=1;entryDx=0;entryDy=0;exitX=0.5;exitY=0;exitDx=0;exitDy=0;" edge="1" parent="1" source="dIL4AxY-LMtDmRbHM10j-852" target="dIL4AxY-LMtDmRbHM10j-834">
          <mxGeometry width="50" height="50" relative="1" as="geometry">
            <mxPoint x="244" y="2222" as="sourcePoint" />
            <mxPoint x="294" y="2172" as="targetPoint" />
          </mxGeometry>
        </mxCell>
        <mxCell id="dIL4AxY-LMtDmRbHM10j-880" value="" style="endArrow=none;html=1;rounded=1;entryX=0.5;entryY=1;entryDx=0;entryDy=0;exitX=0.5;exitY=0;exitDx=0;exitDy=0;" edge="1" parent="1" source="dIL4AxY-LMtDmRbHM10j-853" target="dIL4AxY-LMtDmRbHM10j-834">
          <mxGeometry width="50" height="50" relative="1" as="geometry">
            <mxPoint x="224" y="2233" as="sourcePoint" />
            <mxPoint x="274" y="2183" as="targetPoint" />
          </mxGeometry>
        </mxCell>
        <mxCell id="dIL4AxY-LMtDmRbHM10j-881" value="" style="endArrow=none;html=1;rounded=1;entryX=0.5;entryY=1;entryDx=0;entryDy=0;exitX=0.5;exitY=0;exitDx=0;exitDy=0;" edge="1" parent="1" source="dIL4AxY-LMtDmRbHM10j-854" target="dIL4AxY-LMtDmRbHM10j-834">
          <mxGeometry width="50" height="50" relative="1" as="geometry">
            <mxPoint x="204" y="2240" as="sourcePoint" />
            <mxPoint x="254" y="2190" as="targetPoint" />
          </mxGeometry>
        </mxCell>
        <mxCell id="dIL4AxY-LMtDmRbHM10j-882" value="" style="endArrow=none;html=1;rounded=1;entryX=0.5;entryY=1;entryDx=0;entryDy=0;exitX=0.5;exitY=0;exitDx=0;exitDy=0;" edge="1" parent="1" source="dIL4AxY-LMtDmRbHM10j-855" target="dIL4AxY-LMtDmRbHM10j-834">
          <mxGeometry width="50" height="50" relative="1" as="geometry">
            <mxPoint x="226" y="2247" as="sourcePoint" />
            <mxPoint x="276" y="2197" as="targetPoint" />
          </mxGeometry>
        </mxCell>
        <mxCell id="dIL4AxY-LMtDmRbHM10j-883" value="" style="endArrow=none;html=1;rounded=1;entryX=0.5;entryY=1;entryDx=0;entryDy=0;exitX=0.5;exitY=0;exitDx=0;exitDy=0;" edge="1" parent="1" source="dIL4AxY-LMtDmRbHM10j-856" target="dIL4AxY-LMtDmRbHM10j-834">
          <mxGeometry width="50" height="50" relative="1" as="geometry">
            <mxPoint x="252" y="2251" as="sourcePoint" />
            <mxPoint x="302" y="2201" as="targetPoint" />
          </mxGeometry>
        </mxCell>
        <mxCell id="dIL4AxY-LMtDmRbHM10j-884" value="" style="endArrow=none;html=1;rounded=1;entryX=0.5;entryY=1;entryDx=0;entryDy=0;exitX=0.5;exitY=0;exitDx=0;exitDy=0;" edge="1" parent="1" source="dIL4AxY-LMtDmRbHM10j-857" target="dIL4AxY-LMtDmRbHM10j-834">
          <mxGeometry width="50" height="50" relative="1" as="geometry">
            <mxPoint x="300" y="2272" as="sourcePoint" />
            <mxPoint x="350" y="2222" as="targetPoint" />
          </mxGeometry>
        </mxCell>
        <mxCell id="dIL4AxY-LMtDmRbHM10j-885" value="N" style="ellipse;whiteSpace=wrap;html=1;aspect=fixed;rounded=1;" vertex="1" parent="1">
          <mxGeometry x="638.62" y="2029" width="30" height="30" as="geometry" />
        </mxCell>
        <mxCell id="dIL4AxY-LMtDmRbHM10j-886" value=";" style="ellipse;whiteSpace=wrap;html=1;aspect=fixed;rounded=1;" vertex="1" parent="1">
          <mxGeometry x="697.62" y="2091" width="30" height="30" as="geometry" />
        </mxCell>
        <mxCell id="dIL4AxY-LMtDmRbHM10j-887" value="z" style="ellipse;whiteSpace=wrap;html=1;aspect=fixed;rounded=1;" vertex="1" parent="1">
          <mxGeometry x="613.62" y="2091" width="30" height="30" as="geometry" />
        </mxCell>
        <mxCell id="dIL4AxY-LMtDmRbHM10j-888" value="i" style="ellipse;whiteSpace=wrap;html=1;aspect=fixed;rounded=1;" vertex="1" parent="1">
          <mxGeometry x="656.62" y="2091" width="30" height="30" as="geometry" />
        </mxCell>
        <mxCell id="dIL4AxY-LMtDmRbHM10j-889" value="" style="endArrow=none;html=1;rounded=1;entryX=0.5;entryY=1;entryDx=0;entryDy=0;exitX=0.5;exitY=0;exitDx=0;exitDy=0;" edge="1" parent="1" source="dIL4AxY-LMtDmRbHM10j-887" target="dIL4AxY-LMtDmRbHM10j-885">
          <mxGeometry width="50" height="50" relative="1" as="geometry">
            <mxPoint x="593.62" y="2134" as="sourcePoint" />
            <mxPoint x="643.62" y="2084" as="targetPoint" />
          </mxGeometry>
        </mxCell>
        <mxCell id="dIL4AxY-LMtDmRbHM10j-890" value="" style="endArrow=none;html=1;rounded=1;entryX=0.5;entryY=1;entryDx=0;entryDy=0;exitX=0.5;exitY=0;exitDx=0;exitDy=0;" edge="1" parent="1" source="dIL4AxY-LMtDmRbHM10j-888" target="dIL4AxY-LMtDmRbHM10j-885">
          <mxGeometry width="50" height="50" relative="1" as="geometry">
            <mxPoint x="653.62" y="2187" as="sourcePoint" />
            <mxPoint x="703.62" y="2137" as="targetPoint" />
          </mxGeometry>
        </mxCell>
        <mxCell id="dIL4AxY-LMtDmRbHM10j-891" value="" style="endArrow=none;html=1;rounded=1;entryX=0.5;entryY=1;entryDx=0;entryDy=0;exitX=0.5;exitY=0;exitDx=0;exitDy=0;" edge="1" parent="1" source="dIL4AxY-LMtDmRbHM10j-886" target="dIL4AxY-LMtDmRbHM10j-885">
          <mxGeometry width="50" height="50" relative="1" as="geometry">
            <mxPoint x="666.62" y="2185" as="sourcePoint" />
            <mxPoint x="716.62" y="2135" as="targetPoint" />
          </mxGeometry>
        </mxCell>
        <mxCell id="dIL4AxY-LMtDmRbHM10j-892" value="" style="endArrow=none;html=1;rounded=1;entryX=0.5;entryY=0;entryDx=0;entryDy=0;exitX=0.5;exitY=1;exitDx=0;exitDy=0;" edge="1" parent="1" source="dIL4AxY-LMtDmRbHM10j-829" target="dIL4AxY-LMtDmRbHM10j-885">
          <mxGeometry width="50" height="50" relative="1" as="geometry">
            <mxPoint x="386" y="1954" as="sourcePoint" />
            <mxPoint x="488" y="1970" as="targetPoint" />
          </mxGeometry>
        </mxCell>
      </root>
    </mxGraphModel>
  </diagram>
</mxfile>
